HIERARCHY
ROOT Hips
{
	OFFSET 0.00000 0.00000 0.00000
	CHANNELS 6 Xposition Yposition Zposition Yrotation Zrotation Xrotation 
	JOINT Lumbar
	{
		OFFSET 0 0 0
		CHANNELS 3 Zrotation Xrotation Yrotation
		JOINT Neck
		{
			OFFSET 0.00 0.2701 0.00
			CHANNELS 3 Zrotation Xrotation Yrotation
			End Site
			{
				OFFSET 0.00 0.1379 0.00
			}
		}
		JOINT RightShoulder
		{
			OFFSET 0.0119 0.2289 0.1181
			CHANNELS 3 Zrotation Xrotation Yrotation
			JOINT RightElbow
			{
				OFFSET 0.00 -0.1475 0.00
				CHANNELS 2 Zrotation Yrotation
				JOINT RightWrist
				{
					OFFSET 0.00 -0.1605 0.00
					CHANNELS 2 Zrotation Xrotation
					End Site
					{
						OFFSET 0.0040 -0.1068 0.0006
					}
				}
			}
		}
		JOINT LeftShoulder
		{
			OFFSET 0.0119 0.2289 -0.1181
			CHANNELS 3 Zrotation Xrotation Yrotation
			JOINT LeftElbow
			{
				OFFSET 0.00 -0.1475 0.00
				CHANNELS 2 Zrotation Yrotation
				JOINT LeftWrist
				{
					OFFSET 0.00 -0.1605 0.00
					CHANNELS 2 Zrotation Xrotation
					End Site
					{
						OFFSET 0.0040 -0.1068 -0.0006
					}
				}
			}
		}
	}
	JOINT RightHip
	{
		OFFSET 0.0316 -0.0424 0.0458
		CHANNELS 3 Zrotation Xrotation Yrotation
		JOINT RightKnee
		{
			OFFSET 0.00 -0.2438 0.00
			CHANNELS 1 Zrotation
			JOINT RightAnkle
			{
				OFFSET 0.00 -0.2449 0.00
				CHANNELS 3 Zrotation Xrotation Yrotation
				End Site
				{
					OFFSET 0.1237 -0.0542 0.0051
				}
			}
		}
	}
	JOINT LeftHip
	{
		OFFSET 0.0316 -0.0424 -0.0458
		CHANNELS 3 Zrotation Xrotation Yrotation
		JOINT LeftKnee
		{
			OFFSET 0.00 -0.2438 0.00
			CHANNELS 1 Zrotation
			JOINT LeftAnkle
			{
				OFFSET 0.00 -0.2449 0.00
				CHANNELS 3 Zrotation Xrotation Yrotation
				End Site
				{
					OFFSET 0.1237 -0.0542 -0.0051
				}
			}
		}
	}
}
MOTION
Frames: 22
Frame Time: 0.02
0.40937 0.07652 0.07888 74.25051 -36.56195 -19.00601 45.54858 -0.0176 -7.72299 -11.5614 -5.26551 -2.11994 6.62902 -53.1088 0.35124 98.34603 102.58973 24.60841 0.16004 55.94863 8.88064 -31.5493 91.1572 -84.90084 16.23995 2.33792 58.73286 -0.4864 -13.86427 -33.12336 -7.69403 -3.31674 -3.90501 50.4469 8.5443 9.07096 -25.4157 -7.72422 2.83025 3.6393
0.40934 0.0765 0.07752 74.2312 -36.70172 -18.90858 45.74974 -0.16154 -8.02526 -11.3398 -5.1888 -2.11994 5.17271 -52.44102 0.59748 98.49303 98.95487 22.38757 -0.55888 55.64417 8.95314 -31.81172 91.15896 -85.13369 14.35016 2.07591 58.40874 0.09545 -15.07359 -32.00729 -7.5899 -3.13184 -3.80882 50.40207 8.47748 9.35165 -25.40997 -7.71026 2.8179 3.63624
0.40957 0.07659 0.07572 74.21523 -36.89907 -18.82134 46.04475 -0.33078 -8.29547 -10.98 -5.03731 -2.11994 4.07507 -51.58871 1.79974 97.93642 93.71837 18.33242 -1.32418 55.33408 9.01128 -32.24859 91.16658 -85.76061 11.73405 1.64953 57.90824 0.75325 -16.28296 -30.47725 -7.51143 -2.92277 -3.70279 50.35994 8.37061 9.38414 -25.37846 -7.71093 2.82769 3.64724
0.40968 0.07662 0.0741 74.19437 -37.06225 -18.72817 46.29438 -0.48392 -8.57574 -10.67778 -4.92351 -2.11994 2.89564 -50.80869 2.59728 97.71759 89.37164 15.17822 -2.01298 55.021 9.07764 -32.58401 91.17312 -86.2066 9.568 1.31157 57.48336 1.37592 -17.44205 -29.14714 -7.42363 -2.72786 -3.60291 50.31067 8.2812 9.53306 -25.36365 -7.70492 2.82773 3.65177
0.4098 0.0767 0.07257 74.1842 -37.25997 -18.64112 46.55714 -0.65815 -8.87552 -10.3926 -4.79363 -2.11994 1.38706 -50.06525 3.26732 97.40923 84.3124 11.72689 -2.93312 54.72911 9.13595 -33.01009 91.16945 -86.67745 6.91701 0.914 57.0765 2.00559 -18.81953 -27.75959 -7.32384 -2.51705 -3.49461 50.28657 8.19914 9.68421 -25.32668 -7.6985 2.82542 3.65608
0.40996 0.0767 0.07073 74.15404 -37.39972 -18.54257 46.81396 -0.79319 -9.12499 -10.04105 -4.67953 -2.11994 0.64519 -49.20305 4.42465 97.13093 80.36471 8.47171 -3.39076 54.39262 9.20638 -33.2916 91.18893 -87.17859 5.08342 0.60194 56.59201 2.6337 -19.74241 -26.39982 -7.25562 -2.33458 -3.40201 50.21103 8.09064 9.76691 -25.33075 -7.69656 2.83341 3.66428
0.41015 0.0764 0.06816 74.06713 -37.35788 -18.42158 47.03445 -0.82173 -9.26644 -9.53925 -4.62864 -2.11994 1.92047 -48.09982 6.77198 97.03659 79.9169 6.09784 -2.46841 53.93452 9.33317 -33.11089 91.28153 -87.72823 5.83214 0.56881 55.91947 3.28041 -19.37633 -25.17462 -7.27238 -2.23627 -3.35544 49.98903 7.91957 9.69708 -25.44992 -7.70433 2.86755 3.68121
0.41037 0.07601 0.06529 73.96108 -37.25687 -18.28683 47.24473 -0.80842 -9.35432 -8.97591 -4.59599 -2.11994 3.95635 -46.87756 9.56542 97.00898 80.63849 3.99818 -1.09462 53.43235 9.46929 -32.78315 91.39576 -88.28172 7.40009 0.62679 55.17802 3.91542 -18.55735 -24.00043 -7.31965 -2.16772 -3.3252 49.71681 7.723 9.56804 -25.61396 -7.71611 2.91087 3.70138
0.41057 0.07567 0.06256 73.86415 -37.18764 -18.15026 47.45785 -0.80886 -9.4518 -8.44245 -4.55421 -2.11994 5.64832 -45.68521 12.10191 97.00123 80.80662 1.85446 0.01244 52.95015 9.589 -32.53545 91.49396 -88.7916 8.4949 0.64214 54.47903 4.52809 -17.96692 -22.83167 -7.35059 -2.0858 -3.28749 49.46862 7.53656 9.48003 -25.75824 -7.72543 2.94816 3.71923
0.41081 0.07532 0.05981 73.76352 -37.0999 -18.04682 47.6829 -0.83215 -9.61027 -7.89749 -4.51349 -2.11994 7.34067 -44.58982 14.89205 96.76565 81.01942 -0.66306 1.37499 52.4666 9.76011 -32.2357 91.61906 -89.49206 9.98941 0.65855 53.72666 5.25883 -17.28219 -21.52695 -7.39265 -2.0021 -3.24949 49.21113 7.35319 9.32668 -25.89169 -7.73758 2.99418 3.74117
0.41097 0.07497 0.05703 73.6685 -37.03576 -17.8726 47.87814 -0.79793 -9.62953 -7.3618 -4.47574 -2.11994 9.21444 -43.26465 17.25796 97.01873 81.42758 -2.35105 2.31662 51.97719 9.82585 -32.01009 91.69247 -89.79145 10.85643 0.69449 53.07166 5.74156 -16.68444 -20.52375 -7.41862 -1.92982 -3.21625 48.96644 7.16008 9.29526 -26.06782 -7.74509 3.02374 3.75513
0.41087 0.07465 0.05422 73.57194 -37.05181 -17.492 48.00424 -0.61222 -9.27641 -6.88504 -4.44325 -2.11994 11.34685 -41.35606 18.24888 98.6999 82.18994 -1.47085 1.95621 51.46742 9.6048 -31.99895 91.62486 -88.98114 9.7876 0.7811 52.70055 5.5268 -16.4548 -20.33603 -7.39153 -1.87909 -3.19082 48.72258 6.92825 9.64334 -26.27196 -7.73452 3.0068 3.74666
0.41069 0.07434 0.05139 73.4853 -37.09288 -17.04307 48.09813 -0.3707 -8.78538 -6.41778 -4.4132 -2.11994 13.64394 -39.21963 18.8107 100.85466 83.10001 0.18591 1.16211 50.95587 9.27639 -32.07116 91.50351 -87.76711 8.06558 0.88185 52.4306 5.06499 -16.32636 -20.45279 -7.34731 -1.83935 -3.16987 48.50162 6.69156 10.11205 -26.53178 -7.71983 2.97246 3.72982
0.41056 0.07404 0.04859 73.40893 -37.1223 -16.635 48.1994 -0.15625 -8.35845 -5.93396 -4.38147 -2.11994 15.90105 -37.17098 19.62557 102.73603 83.88178 1.26241 0.58631 50.45523 8.99279 -32.12195 91.40176 -86.73443 6.64489 0.96408 52.11706 4.72654 -16.13877 -20.4355 -7.31157 -1.79664 -3.14786 48.30143 6.46849 10.50812 -26.81873 -7.70985 2.94542 3.7166
0.41038 0.07371 0.04571 73.27133 -37.15237 -16.18588 48.33138 0.0677 -7.9238 -5.49652 -4.35287 -2.11994 18.03901 -35.17461 20.20996 104.8719 84.9528 3.28128 -0.06239 49.91129 8.72576 -32.09964 91.31978 -85.70366 5.22333 1.09912 51.79287 4.34243 -15.98583 -20.40214 -7.27392 -1.74688 -3.12249 47.96969 6.19427 10.9772 -26.88829 -7.68823 2.92203 3.70468
0.41027 0.07343 0.04298 73.26159 -37.18594 -15.8052 48.39138 0.28352 -7.47293 -4.96939 -4.31796 -2.11994 20.45272 -33.02938 21.16861 106.58052 85.45241 3.55082 -0.66928 49.4566 8.3993 -32.24953 91.18525 -84.58227 3.65049 1.12804 51.51338 3.99297 -15.79706 -20.47309 -7.23584 -1.71344 -3.10471 47.91574 6.02834 11.32366 -27.4202 -7.68956 2.88583 3.68754
0.41039 0.07331 0.04062 73.62162 -37.23936 -15.63914 48.26476 0.47197 -7.01313 -4.1603 -4.26627 -2.11994 23.59304 -30.42142 23.2394 107.0704 84.24027 -1.47463 -1.04584 49.25842 7.93045 -32.87032 90.9043 -83.22751 1.7073 0.8442 51.35438 3.81651 -15.42894 -20.7655 -7.2001 -1.72773 -3.10923 48.64234 6.14055 11.30028 -29.23738 -7.7575 2.82722 3.66251
0.41058 0.07325 0.03841 74.1061 -37.29287 -15.54284 48.06628 0.64841 -6.54151 -3.26705 -4.20786 -2.11994 26.99727 -27.69179 25.70039 107.09995 82.46064 -8.2352 -1.36853 49.14861 7.40732 -33.65944 90.57486 -81.80991 -0.34955 0.45468 51.23353 3.6807 -15.03183 -21.15061 -7.16449 -1.75712 -3.1208 49.6437 6.36579 11.14837 -31.51028 -7.84825 2.75513 3.63191
0.41073 0.07317 0.03612 74.52163 -37.3357 -15.40865 47.89764 0.82449 -6.07437 -2.43349 -4.15163 -2.11994 30.27702 -25.08947 28.00246 107.28879 80.99901 -14.02522 -1.72484 48.99216 6.91067 -34.36168 90.27706 -80.47575 -2.28354 0.12507 51.08079 3.51481 -14.68944 -21.48796 -7.12914 -1.77568 -3.12733 50.50786 6.55442 11.05882 -33.56393 -7.927 2.6828 3.6006
0.41092 0.07307 0.03385 74.99144 -37.42352 -15.29766 47.73881 1.02735 -5.60671 -1.50919 -4.09914 -2.11994 33.5946 -22.1768 30.22779 107.7024 79.289 -20.56505 -2.06045 48.86266 6.39844 -35.10999 89.93706 -78.89911 -4.53669 -0.25005 50.99141 3.3878 -14.18354 -21.86003 -7.09192 -1.81056 -3.14138 51.42769 6.68219 10.96338 -35.68433 -8.01237 2.63472 3.58166
0.41103 0.07302 0.03159 75.37558 -37.4183 -15.15648 47.5441 1.17054 -5.13844 -0.75444 -4.03728 -2.11994 36.87828 -19.88248 32.69156 107.53549 77.96015 -25.95454 -2.41697 48.69842 5.91241 -35.80194 89.6739 -77.8137 -6.14835 -0.56085 50.77977 3.19457 -13.99925 -22.17746 -7.05876 -1.81594 -3.14189 52.29296 6.96158 10.83982 -37.75625 -8.08962 2.53569 3.53701
0.41096 0.07306 0.02937 75.50975 -37.14763 -14.90982 47.2578 1.15459 -4.67864 -0.48353 -3.9507 -2.11994 40.13533 -19.34828 35.88901 105.84867 77.81245 -27.84066 -2.87569 48.41348 5.46917 -36.29054 89.63677 -78.14037 -5.91631 -0.62107 50.20422 2.79344 -14.80424 -22.3232 -7.03765 -1.72695 -3.09891 52.97054 7.65065 10.74234 -39.72671 -8.13737 2.2771 3.41168
